# xmcd
#
# Track frame offsets: 
#        150
#        18655
#        37080
#
# Disc length: 737 seconds
#
# Revision: 3
# Processed by: cddbd v1.5.2PL0 Copyright (c) Steve Scherf et al.
# Submitted via: ExactAudioCopy v0.99pb4
#
DISCID=2102df03
DTITLE=Ray Parker Jr. - Arista CD3
DYEAR=1988
DGENRE=Pop
TTITLE0=Ghostbusters
TTITLE1=The Other Woman
TTITLE2=A Woman Needs Love (Just Like You Do)
EXTD=
EXTT0=
EXTT1=
EXTT2=
PLAYORDER=
